HIERARCHY
ROOT Hips
{
	OFFSET	0.000000	0.000000	0.000000
	CHANNELS 6 Xposition Yposition Zposition Zrotation Xrotation Yrotation
	JOINT LeftUpLeg
	{
		OFFSET	12.830505	-7.049846	-1.643436
		CHANNELS 3 Zrotation Xrotation Yrotation
		JOINT LeftLeg
		{
			OFFSET	0.620834	-39.957500	-1.919341
			CHANNELS 3 Zrotation Xrotation Yrotation
			JOINT LeftFoot
			{
				OFFSET	-0.413890	-44.704761	-3.870325
				CHANNELS 3 Zrotation Xrotation Yrotation
				JOINT LeftFootHeel
				{
					OFFSET	0.164738	-8.918193	-6.555130
					CHANNELS 3 Zrotation Xrotation Yrotation
					End Site
					{
						OFFSET	-0.604053	0.000000	21.044330
					}
				}
			}
		}
	}
	JOINT RightUpLeg
	{
		OFFSET	-12.830505	-7.049846	-1.643436
		CHANNELS 3 Zrotation Xrotation Yrotation
		JOINT RightLeg
		{
			OFFSET	-0.620834	-39.957500	-1.919341
			CHANNELS 3 Zrotation Xrotation Yrotation
			JOINT RightFoot
			{
				OFFSET	0.413890	-44.704761	-3.870325
				CHANNELS 3 Zrotation Xrotation Yrotation
				JOINT RightFootHeel
				{
					OFFSET	-0.164738	-8.918193	-6.555130
					CHANNELS 3 Zrotation Xrotation Yrotation
					End Site
					{
						OFFSET	0.604053	0.000000	21.044330
					}
				}
			}
		}
	}
	JOINT Spine
	{
		OFFSET	0.000000	12.498170	1.820647
		CHANNELS 3 Zrotation Xrotation Yrotation
		JOINT Spine1
		{
			OFFSET	0.000000	7.620000	0.000000
			CHANNELS 3 Zrotation Xrotation Yrotation
			JOINT LeftShoulder
			{
				OFFSET	9.167800	29.136339	-5.551221
				CHANNELS 3 Zrotation Xrotation Yrotation
				JOINT LeftArm
				{
					OFFSET	12.133453	-3.880866	1.461963
					CHANNELS 3 Zrotation Xrotation Yrotation
					JOINT LeftForeArm
					{
						OFFSET	2.507115	-31.664908	-1.069404
						CHANNELS 3 Zrotation Xrotation Yrotation
						JOINT LeftHand
						{
							OFFSET	4.116172	-24.512624	5.009439
							CHANNELS 3 Zrotation Xrotation Yrotation
							End Site
							{
								OFFSET	-0.213136	-10.931856	2.182134
							}
						}
					}
				}
			}
			JOINT RightShoulder
			{
				OFFSET	-9.167800	29.136339	-5.551221
				CHANNELS 3 Zrotation Xrotation Yrotation
				JOINT RightArm
				{
					OFFSET	-12.133453	-3.880866	1.461963
					CHANNELS 3 Zrotation Xrotation Yrotation
					JOINT RightForeArm
					{
						OFFSET	-2.507115	-31.664908	-1.069404
						CHANNELS 3 Zrotation Xrotation Yrotation
						JOINT RightHand
						{
							OFFSET	-4.116172	-24.512624	5.009439
							CHANNELS 3 Zrotation Xrotation Yrotation
							End Site
							{
								OFFSET	0.213136	-10.931856	2.182134
							}
						}
					}
				}
			}
			JOINT Neck
			{
				OFFSET	0.000000	32.926272	-3.635654
				CHANNELS 3 Zrotation Xrotation Yrotation
				JOINT Head
				{
					OFFSET	0.000000	12.481178	4.646143
					CHANNELS 3 Zrotation Xrotation Yrotation
					End Site
					{
						OFFSET	0.000000	17.715204	-2.222063
					}
				}
			}
		}
	}
}
MOTION
Frames:     19
Frame Time: 0.016667
-9.628931	99.372092	1.683008	-3.585490	8.904619	12.557222	-0.758868	-36.397652	-13.190280	6.883702	22.225901	-11.016931	-6.621068	2.191662	-11.686093	0.	0.	0.	2.623211	-3.099922	-27.406389	4.884132	13.188890	-16.582169	2.071096	-14.687265	-14.233324	0.	0.	0.	-0.000001	-0.000000	-0.000001	-28.083241	15.187615	43.396202	12.301777	-5.393832	3.135776	-8.218018	-32.457783	-32.550716	-100.177429	-27.486185	-82.356483	-28.008043	-0.775180	6.875536	-4.434472	-23.160925	-11.262297	-97.523300	-50.109379	-29.225704	-7.650038	5.135808	10.800082	-20.217672	-1.438623	27.479567	4.904339	1.695635	-8.590705	24.834883	-13.944586	-23.031233	
-9.547815	99.065056	2.097757	-4.331541	9.026871	15.480309	-2.243869	-38.155903	-12.358472	8.792171	23.977556	-14.607009	-6.584144	1.956305	-12.801657	0.	0.	0.	3.292823	-5.088870	-24.600723	5.570272	15.801661	-18.068632	-0.048816	-15.965574	-16.842012	0.	0.	0.	0.000000	-0.000001	-0.000000	-28.777794	15.916970	43.486050	11.978141	-4.966132	2.655901	-8.158836	-33.604401	-34.241386	-100.351143	-28.417118	-80.749443	-25.737780	-0.996407	6.970390	-4.111233	-21.764059	-10.774738	-98.361725	-48.078083	-32.526363	-7.164338	6.365322	6.498154	-19.535212	-0.903863	29.027723	4.477920	2.201171	-9.809365	27.470928	-16.894075	-19.676954	
-9.512000	98.928912	2.334538	-4.731744	9.012218	16.974943	-3.075584	-38.872238	-13.220684	9.306052	24.964474	-15.250396	-6.466712	1.783622	-13.040871	0.	0.	0.	3.180429	-5.590303	-25.356956	6.180420	18.148514	-18.057932	0.049632	-17.663715	-16.801777	0.	0.	0.	-0.000000	0.000001	-0.000004	-28.796003	16.476082	43.453064	12.048207	-4.537305	2.186271	-8.572545	-34.465801	-35.725918	-100.382088	-29.552395	-80.983208	-24.381596	-0.641901	6.241143	-3.978971	-21.178316	-11.011052	-99.117531	-47.582737	-37.384823	-6.987158	5.553579	5.506859	-18.661686	-0.539130	28.545826	4.361334	2.292532	-10.001115	28.049854	-15.953402	-23.607134	
-9.477136	98.737102	2.549951	-5.201657	9.272423	18.291908	-3.870990	-39.769527	-14.891570	9.465594	25.944149	-14.962770	-6.428758	1.421186	-13.294986	0.	0.	0.	3.089207	-6.302307	-26.424391	6.550040	19.609259	-18.509233	0.279726	-18.505850	-15.745849	0.	0.	0.	-0.000001	0.000003	0.000002	-28.769857	17.048813	43.093521	12.175243	-4.612916	2.075423	-9.092412	-34.779484	-36.986797	-100.655899	-30.740395	-82.007347	-23.912027	-0.306735	5.795339	-3.905175	-21.184782	-10.942329	-99.287949	-46.883743	-38.071320	-7.166701	5.549468	5.360357	-18.336592	-0.356095	28.150389	4.369534	1.951599	-9.533981	27.443550	-14.493704	-24.597527	
-9.477136	98.737102	2.549951	-5.201657	9.272423	18.291908	-3.870990	-39.769527	-14.891570	9.465594	25.944149	-14.962770	-6.428758	1.421186	-13.294986	0.	0.	0.	3.089207	-6.302307	-26.424391	6.550040	19.609259	-18.509233	0.279726	-18.505850	-15.745849	0.	0.	0.	-0.000001	0.000003	0.000002	-28.769857	17.048813	43.093521	12.175243	-4.612916	2.075423	-9.092412	-34.779484	-36.986797	-100.655899	-30.740395	-82.007347	-23.912027	-0.306735	5.795339	-3.905175	-21.184782	-10.942329	-99.287949	-46.883743	-38.071320	-7.166701	5.549468	5.360357	-18.336592	-0.356095	28.150389	4.369534	1.951599	-9.533981	27.443550	-14.493704	-24.597527	
-9.651304	98.421472	2.619479	-5.621671	9.760523	18.703981	-4.141153	-40.991985	-16.006817	9.575275	27.134222	-14.888870	-6.630361	0.677094	-13.092445	0.	0.	0.	3.022696	-7.092412	-27.092325	6.756166	21.005375	-17.933914	0.492418	-19.491407	-15.060040	0.	0.	0.	-0.000001	-0.000000	-0.000002	-29.695631	17.530682	43.848740	12.518119	-5.208350	1.898645	-9.759615	-35.120384	-37.926895	-101.325752	-31.388687	-82.746681	-23.921816	-0.351603	5.974889	-3.820459	-21.650085	-11.163004	-99.716827	-45.799698	-35.999249	-6.967184	5.680522	5.897446	-18.092852	-0.169273	28.260935	4.362319	1.180670	-9.802710	26.805910	-15.204216	-22.571201	
-9.757981	98.215690	2.609240	-5.725725	9.919111	18.732924	-4.326091	-41.567810	-16.497660	9.671926	27.906431	-15.262631	-6.714124	0.148713	-12.545197	0.	0.	0.	2.961611	-7.197799	-27.394901	6.806675	21.232471	-17.453938	0.701435	-19.829861	-14.723892	0.	0.	0.	-0.000000	0.000001	0.000002	-29.857275	17.600378	43.919788	12.573676	-4.897369	1.941159	-9.956480	-35.563637	-37.822628	-101.898582	-31.152206	-82.737045	-23.996138	-0.698228	6.514938	-3.650026	-21.431948	-10.978812	-99.960983	-45.362400	-35.798859	-6.767412	5.202343	5.829230	-18.013493	-0.217876	28.653719	4.204805	1.412175	-9.714538	27.380020	-15.074636	-23.185150	
-9.828270	98.017330	2.570514	-5.868281	10.174055	18.691303	-4.413176	-42.337288	-16.747271	9.722244	28.747803	-15.272708	-6.748182	-0.213310	-12.450140	0.	0.	0.	2.985964	-7.409382	-27.323484	6.922605	21.457218	-17.372011	0.948061	-20.355331	-14.375038	0.	0.	0.	-0.000001	-0.000000	-0.000002	-30.072941	17.772753	44.066452	12.633060	-4.978199	1.937065	-10.141353	-35.883495	-37.571182	-102.446754	-30.812380	-82.729210	-24.131710	-0.946204	6.974769	-3.579904	-21.522329	-10.985385	-100.041779	-45.181335	-36.394180	-6.654634	4.592263	4.842525	-17.969507	-0.266362	28.494022	4.218883	1.286532	-9.694260	27.530151	-14.717520	-23.496574	
-9.968169	97.782296	2.517642	-5.924908	10.434086	18.351112	-3.951225	-43.345108	-16.252527	9.360885	29.883751	-14.484443	-6.683705	-0.528289	-13.236988	0.	0.	0.	2.800197	-7.529564	-27.046539	7.232825	21.644714	-17.660524	1.425010	-21.038322	-13.504068	0.	0.	0.	0.000001	0.000001	0.000003	-30.288351	18.243563	44.401363	12.726809	-5.192677	1.799745	-10.557356	-36.055595	-37.782883	-103.010117	-30.808807	-82.968842	-24.039961	-1.014138	7.188040	-3.748856	-21.571447	-11.195716	-100.016289	-45.108047	-37.229343	-6.625362	3.778789	3.681489	-18.050779	-0.049555	27.910854	4.236481	1.135688	-10.003139	27.438999	-14.648090	-23.180204	
-10.010365	97.718365	2.585491	-5.801299	10.578685	17.818151	-3.407915	-43.658936	-14.944594	9.314987	30.252083	-14.467490	-6.572006	-0.759296	-13.749213	0.	0.	0.	2.364553	-7.435287	-26.990524	7.448538	21.700266	-17.214539	1.624423	-21.316069	-13.232041	0.	0.	0.	0.000001	0.000002	-0.000001	-30.420208	18.495617	44.687229	12.857522	-5.296777	1.553089	-10.905704	-36.159840	-38.257950	-103.178886	-31.309509	-83.361015	-23.709080	-1.030580	7.159312	-4.051567	-21.259668	-11.556069	-99.763031	-45.199944	-37.445244	-6.604538	3.053732	3.190212	-18.152269	0.128982	27.832615	4.219890	1.195015	-10.581025	27.468630	-14.384348	-22.953869	
-9.933886	97.698250	2.555270	-5.570076	10.623600	16.979414	-2.878019	-43.677525	-13.843624	9.138218	30.476236	-14.013093	-6.425501	-0.992900	-14.122225	0.	0.	0.	2.237530	-7.378243	-26.189285	7.582541	21.639923	-17.508749	1.761408	-21.511688	-12.666362	0.	0.	0.	-0.000000	-0.000002	0.000001	-30.480635	18.659302	44.864475	13.006006	-5.394515	1.320862	-11.248400	-36.272282	-38.515938	-103.187927	-31.844351	-83.638390	-23.253794	-1.054260	7.013986	-4.456970	-20.264856	-11.879362	-99.381683	-45.245262	-38.703320	-6.405290	1.409816	2.741335	-18.229279	0.402090	27.882559	4.325270	1.415254	-11.245583	27.612749	-14.003234	-22.219982	
-10.017711	97.713637	2.551065	-5.416445	10.613711	16.445368	-2.261206	-43.624306	-12.518342	9.087077	30.428633	-14.337424	-6.322424	-1.089899	-14.236477	0.	0.	0.	1.370754	-7.113057	-26.713676	8.021812	21.893030	-16.587795	1.849215	-21.566114	-12.456337	0.	0.	0.	-0.000000	-0.000001	-0.000001	-30.501501	18.722414	44.868992	13.073530	-5.451086	1.224315	-11.373979	-36.294918	-38.489166	-103.156006	-32.019958	-83.716599	-22.929020	-1.065459	6.940696	-4.710431	-19.469282	-11.992583	-98.981491	-45.216774	-39.904556	-6.292321	-0.119860	2.574844	-18.289213	0.653086	28.027178	4.420866	1.538756	-11.569112	27.707829	-13.766811	-21.675673	
-9.926500	97.824909	2.396300	-4.852385	10.552484	14.382002	-0.924653	-43.174946	-10.278280	8.459296	30.421677	-13.566298	-5.952028	-1.277379	-14.243353	0.	0.	0.	0.262961	-6.921878	-25.778473	8.348378	22.202208	-15.877811	2.175170	-21.440380	-11.795727	0.	0.	0.	-0.000000	0.000001	0.000001	-30.338058	18.442474	44.204330	13.319905	-5.230965	1.020921	-11.525181	-36.163998	-38.050381	-103.097054	-32.539246	-83.997787	-22.043591	-0.953238	6.682622	-5.586640	-16.364992	-12.243249	-96.003792	-45.188107	-44.195652	-5.777995	-8.051173	3.332709	-18.736223	1.843891	28.396053	4.791339	2.264921	-12.245447	28.237875	-12.748386	-19.715038	
-9.849354	97.974454	2.209565	-4.458332	10.311738	12.676137	0.126926	-42.525093	-8.967700	7.871797	30.286959	-12.627048	-5.733696	-1.311123	-14.062578	0.	0.	0.	-0.449726	-6.638321	-25.109394	8.460192	22.319769	-15.352602	2.382059	-21.042490	-11.279227	0.	0.	0.	-0.000000	0.000001	0.000000	-29.993368	18.112108	43.313248	13.518193	-4.871667	0.971056	-11.360373	-35.984608	-37.516308	-103.302620	-33.060596	-84.481544	-21.800987	-0.867572	6.597317	-6.285871	-14.644235	-12.573816	-91.750725	-45.805370	-45.597015	-5.478106	-15.562011	5.553446	-19.138556	2.856979	28.706268	4.954395	2.851234	-12.152318	28.576113	-11.812342	-18.715660	
-9.725482	98.170857	1.953476	-4.072268	9.900443	10.715967	1.207548	-41.593975	-7.729383	7.311827	30.054304	-11.579418	-5.548099	-1.323440	-13.701420	0.	0.	0.	-1.047565	-6.282311	-24.446356	8.349775	22.368355	-14.759526	2.629089	-20.436808	-10.663899	0.	0.	0.	0.000001	0.000000	0.000001	-29.653402	17.994129	42.272526	13.611650	-4.766886	0.995639	-10.820263	-35.762630	-36.673458	-103.840462	-33.644474	-85.110512	-21.754877	-0.817216	6.646766	-7.125948	-13.479569	-13.062890	-85.863167	-46.738853	-45.491776	-4.738720	-24.332272	8.769493	-19.313580	3.954706	29.453634	5.117255	3.143288	-11.883557	28.686090	-10.931875	-17.085178	
-9.656832	98.287991	1.816737	-3.882737	9.650843	9.633792	1.767483	-41.029297	-7.017809	7.100332	29.880432	-11.119718	-5.472960	-1.324360	-13.473322	0.	0.	0.	-1.310447	-6.108028	-24.108021	8.214221	22.365105	-14.398056	2.738940	-20.046316	-10.358438	0.	0.	0.	-0.000000	-0.000000	-0.000000	-29.381638	17.860661	41.688259	13.618478	-4.652310	0.963827	-10.422528	-35.603439	-36.094090	-104.195732	-33.918804	-85.475555	-21.730803	-0.787469	6.656484	-7.498196	-12.887436	-13.322680	-82.536331	-47.287106	-44.992874	-3.931881	-28.943975	10.632577	-19.562529	4.391213	29.814407	5.187950	3.411869	-11.782603	28.784517	-10.451721	-16.190794	
-9.590307	98.416889	1.679004	-3.690789	9.379902	8.480963	2.345001	-40.397953	-6.214366	6.933073	29.657557	-10.717486	-5.411214	-1.321831	-13.220195	0.	0.	0.	-1.577648	-5.926053	-23.795095	8.040734	22.342039	-13.970984	2.853802	-19.606817	-10.033917	0.	0.	0.	0.000000	0.000001	-0.000000	-28.164764	17.849371	39.204529	12.940946	-3.752953	2.386235	-9.958767	-35.376053	-35.433937	-104.591118	-34.189896	-85.894142	-21.685633	-0.771966	6.648689	-8.200550	-12.100278	-11.874925	-79.021301	-47.886909	-44.210793	-2.767779	-33.584774	12.629502	-19.636618	3.583194	28.972870	4.376856	4.282134	-10.066755	28.853584	-9.889650	-15.395834	
-9.385461	98.863131	1.272461	-3.094173	8.495382	4.606875	4.126706	-38.151600	-3.544008	6.463080	28.738014	-9.580143	-5.248142	-1.298440	-12.252306	0.	0.	0.	-2.520709	-5.273359	-23.042255	7.404964	22.154802	-12.512322	3.443705	-18.169123	-8.571399	0.	0.	0.	0.000000	-0.000001	-0.000001	-27.943083	17.388418	39.063305	13.148230	-4.562310	1.126762	-8.389313	-34.233772	-33.291664	-105.977516	-35.086193	-87.483902	-21.404320	-0.852814	6.524107	-8.405154	-10.980976	-13.874364	-67.007896	-49.197498	-39.564865	3.073233	-47.585453	19.433670	-20.612999	6.168731	30.599207	5.335721	4.284015	-10.364442	28.219868	-8.068010	-13.370449	
-9.242455	99.171736	0.963144	-2.682213	7.884044	1.701750	5.246076	-36.478367	-1.906248	6.063844	28.028076	-8.711962	-5.152435	-1.281529	-11.299623	0.	0.	0.	-3.236886	-4.797937	-22.689960	6.864984	21.952394	-11.496733	4.087052	-17.222948	-7.058258	0.	0.	0.	-0.000000	0.000000	0.000000	-26.973238	17.169582	37.478596	12.760126	-4.495976	1.512099	-7.395577	-33.270889	-31.725866	-106.929077	-35.728508	-88.710503	-21.193956	-0.992629	6.476209	-8.542330	-10.049336	-13.881644	-57.839531	-49.782124	-34.360264	9.241768	-56.221230	25.284937	-20.855118	6.260027	30.649986	5.376507	4.707515	-8.893466	27.510334	-6.831162	-12.568922	
